<svg xmlns="http://www.w3.org/2000/svg" width="1500" height="620" viewBox="0 0 1500 620">
<rect width="100%" height="100%" fill="white"/>
<text x="750.0" y="32" text-anchor="middle" font-size="22" font-family="Arial" font-weight="700">Exp.3 per-query median path length (rad)</text>
<line x1="90" y1="510" x2="1470" y2="510" stroke="#333"/>
<line x1="90" y1="70" x2="90" y2="510" stroke="#333"/>
<line x1="90" y1="510.0" x2="1470" y2="510.0" stroke="#e2e8f0"/>
<text x="82" y="514.0" text-anchor="end" font-size="12" font-family="Arial">0</text>
<line x1="90" y1="400.0" x2="1470" y2="400.0" stroke="#e2e8f0"/>
<text x="82" y="404.0" text-anchor="end" font-size="12" font-family="Arial">1.85</text>
<line x1="90" y1="290.0" x2="1470" y2="290.0" stroke="#e2e8f0"/>
<text x="82" y="294.0" text-anchor="end" font-size="12" font-family="Arial">3.69</text>
<line x1="90" y1="180.0" x2="1470" y2="180.0" stroke="#e2e8f0"/>
<text x="82" y="184.0" text-anchor="end" font-size="12" font-family="Arial">5.54</text>
<line x1="90" y1="70.0" x2="1470" y2="70.0" stroke="#e2e8f0"/>
<text x="82" y="74.0" text-anchor="end" font-size="12" font-family="Arial">7.38</text>
<rect x="138.3" y="191.3" width="179.4" height="318.7" fill="#2b6cb0"/>
<text x="228.0" y="186.3" text-anchor="middle" font-size="11" font-family="Arial">5.35</text>
<text x="228.0" y="528" text-anchor="end" font-size="12" font-family="Arial" transform="rotate(-35 228.0 528)">AS-&gt;TS SBF</text>
<rect x="414.3" y="93.2" width="179.4" height="416.8" fill="#c05621"/>
<text x="504.0" y="88.2" text-anchor="middle" font-size="11" font-family="Arial">6.99</text>
<text x="504.0" y="528" text-anchor="end" font-size="12" font-family="Arial" transform="rotate(-35 504.0 528)">TS-&gt;CS SBF</text>
<rect x="690.3" y="70.0" width="179.4" height="440.0" fill="#6b46c1"/>
<text x="780.0" y="65.0" text-anchor="middle" font-size="11" font-family="Arial">7.38</text>
<text x="780.0" y="528" text-anchor="end" font-size="12" font-family="Arial" transform="rotate(-35 780.0 528)">CS-&gt;LB SBF</text>
<rect x="966.3" y="216.6" width="179.4" height="293.4" fill="#2f855a"/>
<text x="1056.0" y="211.6" text-anchor="middle" font-size="11" font-family="Arial">4.92</text>
<text x="1056.0" y="528" text-anchor="end" font-size="12" font-family="Arial" transform="rotate(-35 1056.0 528)">LB-&gt;RB SBF</text>
<rect x="1242.3" y="347.3" width="179.4" height="162.7" fill="#b83280"/>
<text x="1332.0" y="342.3" text-anchor="middle" font-size="11" font-family="Arial">2.73</text>
<text x="1332.0" y="528" text-anchor="end" font-size="12" font-family="Arial" transform="rotate(-35 1332.0 528)">RB-&gt;AS SBF</text>
</svg>
